<mxfile host="Electron" modified="2023-12-23T19:31:17.955Z" agent="Mozilla/5.0 (Windows NT 10.0; Win64; x64) AppleWebKit/537.36 (KHTML, like Gecko) draw.io/22.1.11 Chrome/114.0.5735.289 Electron/25.9.8 Safari/537.36" etag="T0A2gBYbMuFCsxQEPrBa" version="22.1.11" type="device">
  <diagram name="Page-1" id="dbus7fhc-85zLqqkIq8P">
    <mxGraphModel dx="1036" dy="648" grid="1" gridSize="10" guides="1" tooltips="1" connect="1" arrows="1" fold="1" page="1" pageScale="1" pageWidth="850" pageHeight="1100" math="0" shadow="0">
      <root>
        <mxCell id="0" />
        <mxCell id="1" parent="0" />
        <mxCell id="pOeTAW9wxpoR-jRWrxwD-1" value="Система" style="shape=umlActor;verticalLabelPosition=bottom;verticalAlign=top;html=1;outlineConnect=0;fillColor=#d5e8d4;strokeColor=#82b366;" vertex="1" parent="1">
          <mxGeometry x="870" y="160" width="30" height="60" as="geometry" />
        </mxCell>
        <mxCell id="pOeTAW9wxpoR-jRWrxwD-2" value="Адміністратор" style="shape=umlActor;verticalLabelPosition=bottom;verticalAlign=top;html=1;outlineConnect=0;fillColor=#fff2cc;strokeColor=#d6b656;" vertex="1" parent="1">
          <mxGeometry x="90" y="300" width="30" height="60" as="geometry" />
        </mxCell>
        <mxCell id="pOeTAW9wxpoR-jRWrxwD-3" value="Бухгалтер" style="shape=umlActor;verticalLabelPosition=bottom;verticalAlign=top;html=1;outlineConnect=0;fillColor=#e1d5e7;strokeColor=#9673a6;" vertex="1" parent="1">
          <mxGeometry x="90" y="150" width="30" height="60" as="geometry" />
        </mxCell>
        <mxCell id="pOeTAW9wxpoR-jRWrxwD-4" value="Комерційний&lt;br&gt;директор" style="shape=umlActor;verticalLabelPosition=bottom;verticalAlign=top;html=1;outlineConnect=0;fillColor=#f8cecc;strokeColor=#b85450;" vertex="1" parent="1">
          <mxGeometry x="90" y="10" width="30" height="60" as="geometry" />
        </mxCell>
        <mxCell id="pOeTAW9wxpoR-jRWrxwD-9" style="edgeStyle=orthogonalEdgeStyle;rounded=0;orthogonalLoop=1;jettySize=auto;html=1;entryX=0.5;entryY=0;entryDx=0;entryDy=0;entryPerimeter=0;endArrow=block;endFill=0;" edge="1" parent="1" target="pOeTAW9wxpoR-jRWrxwD-3">
          <mxGeometry relative="1" as="geometry">
            <mxPoint x="105" y="110" as="sourcePoint" />
          </mxGeometry>
        </mxCell>
        <mxCell id="pOeTAW9wxpoR-jRWrxwD-10" value="" style="rounded=0;whiteSpace=wrap;html=1;gradientColor=none;fillColor=none;" vertex="1" parent="1">
          <mxGeometry x="160" y="10" width="690" height="380" as="geometry" />
        </mxCell>
        <mxCell id="pOeTAW9wxpoR-jRWrxwD-11" value="База даних" style="text;html=1;align=center;verticalAlign=middle;resizable=0;points=[];autosize=1;strokeColor=none;fillColor=none;" vertex="1" parent="1">
          <mxGeometry x="460" y="10" width="90" height="30" as="geometry" />
        </mxCell>
        <mxCell id="pOeTAW9wxpoR-jRWrxwD-12" value="Перегляд даних" style="ellipse;whiteSpace=wrap;html=1;fillColor=#f8cecc;strokeColor=#b85450;" vertex="1" parent="1">
          <mxGeometry x="200" y="40" width="90" height="50" as="geometry" />
        </mxCell>
        <mxCell id="pOeTAW9wxpoR-jRWrxwD-13" value="Редагування, видалення, внесення нових контрактів" style="ellipse;whiteSpace=wrap;html=1;fillColor=#f8cecc;strokeColor=#b85450;" vertex="1" parent="1">
          <mxGeometry x="300" y="50" width="165" height="70" as="geometry" />
        </mxCell>
        <mxCell id="pOeTAW9wxpoR-jRWrxwD-14" value="Реєстрація, зміна опису, видалення спектаклів" style="ellipse;whiteSpace=wrap;html=1;fillColor=#f8cecc;strokeColor=#b85450;" vertex="1" parent="1">
          <mxGeometry x="465" y="110" width="122.5" height="80" as="geometry" />
        </mxCell>
        <mxCell id="pOeTAW9wxpoR-jRWrxwD-15" value="Реєстрація, видалення, зміна базової зарплатні акторів" style="ellipse;whiteSpace=wrap;html=1;fillColor=#f8cecc;strokeColor=#b85450;" vertex="1" parent="1">
          <mxGeometry x="364" y="190" width="122.5" height="80" as="geometry" />
        </mxCell>
        <mxCell id="pOeTAW9wxpoR-jRWrxwD-16" value="Реєстрація, зміна, видалення нових ролей" style="ellipse;whiteSpace=wrap;html=1;fillColor=#f8cecc;strokeColor=#b85450;" vertex="1" parent="1">
          <mxGeometry x="210" y="210" width="122.5" height="80" as="geometry" />
        </mxCell>
        <mxCell id="pOeTAW9wxpoR-jRWrxwD-17" value="Обрахунок &lt;br&gt;кількості зіграних спектаклів актора" style="ellipse;whiteSpace=wrap;html=1;fillColor=#d5e8d4;strokeColor=#82b366;" vertex="1" parent="1">
          <mxGeometry x="630" y="100" width="122.5" height="80" as="geometry" />
        </mxCell>
        <mxCell id="pOeTAW9wxpoR-jRWrxwD-18" value="Оновлення премії та зарплатні" style="ellipse;whiteSpace=wrap;html=1;fillColor=#d5e8d4;strokeColor=#82b366;" vertex="1" parent="1">
          <mxGeometry x="700" y="240" width="122.5" height="80" as="geometry" />
        </mxCell>
        <mxCell id="pOeTAW9wxpoR-jRWrxwD-19" value="Зміна преміального коефіцієнту" style="ellipse;whiteSpace=wrap;html=1;fillColor=#fff2cc;strokeColor=#d6b656;" vertex="1" parent="1">
          <mxGeometry x="495" y="270" width="122.5" height="80" as="geometry" />
        </mxCell>
        <mxCell id="pOeTAW9wxpoR-jRWrxwD-20" value="Зв&#39;язування даних в додатковій таблиці" style="ellipse;whiteSpace=wrap;html=1;fillColor=#fff2cc;strokeColor=#d6b656;" vertex="1" parent="1">
          <mxGeometry x="250" y="320" width="122.5" height="60" as="geometry" />
        </mxCell>
        <mxCell id="pOeTAW9wxpoR-jRWrxwD-24" value="" style="endArrow=none;html=1;rounded=0;entryX=0;entryY=0.5;entryDx=0;entryDy=0;" edge="1" parent="1" target="pOeTAW9wxpoR-jRWrxwD-20">
          <mxGeometry width="50" height="50" relative="1" as="geometry">
            <mxPoint x="140" y="310" as="sourcePoint" />
            <mxPoint x="520" y="310" as="targetPoint" />
          </mxGeometry>
        </mxCell>
        <mxCell id="pOeTAW9wxpoR-jRWrxwD-25" value="" style="endArrow=none;html=1;rounded=0;exitX=1;exitY=0.5;exitDx=0;exitDy=0;" edge="1" parent="1" source="pOeTAW9wxpoR-jRWrxwD-17">
          <mxGeometry width="50" height="50" relative="1" as="geometry">
            <mxPoint x="470" y="360" as="sourcePoint" />
            <mxPoint x="860" y="190" as="targetPoint" />
          </mxGeometry>
        </mxCell>
        <mxCell id="pOeTAW9wxpoR-jRWrxwD-26" value="" style="endArrow=none;html=1;rounded=0;entryX=0;entryY=1;entryDx=0;entryDy=0;" edge="1" parent="1" target="pOeTAW9wxpoR-jRWrxwD-12">
          <mxGeometry width="50" height="50" relative="1" as="geometry">
            <mxPoint x="130" y="170" as="sourcePoint" />
            <mxPoint x="520" y="310" as="targetPoint" />
          </mxGeometry>
        </mxCell>
        <mxCell id="pOeTAW9wxpoR-jRWrxwD-27" value="" style="endArrow=none;html=1;rounded=0;entryX=0;entryY=0;entryDx=0;entryDy=0;" edge="1" parent="1" target="pOeTAW9wxpoR-jRWrxwD-16">
          <mxGeometry width="50" height="50" relative="1" as="geometry">
            <mxPoint x="130" y="170" as="sourcePoint" />
            <mxPoint x="520" y="310" as="targetPoint" />
          </mxGeometry>
        </mxCell>
        <mxCell id="pOeTAW9wxpoR-jRWrxwD-28" value="" style="endArrow=none;html=1;rounded=0;entryX=0;entryY=0;entryDx=0;entryDy=0;" edge="1" parent="1" target="pOeTAW9wxpoR-jRWrxwD-15">
          <mxGeometry width="50" height="50" relative="1" as="geometry">
            <mxPoint x="130" y="170" as="sourcePoint" />
            <mxPoint x="520" y="310" as="targetPoint" />
          </mxGeometry>
        </mxCell>
        <mxCell id="pOeTAW9wxpoR-jRWrxwD-29" value="" style="endArrow=none;html=1;rounded=0;entryX=0;entryY=0.5;entryDx=0;entryDy=0;" edge="1" parent="1" target="pOeTAW9wxpoR-jRWrxwD-13">
          <mxGeometry width="50" height="50" relative="1" as="geometry">
            <mxPoint x="130" y="170" as="sourcePoint" />
            <mxPoint x="520" y="310" as="targetPoint" />
          </mxGeometry>
        </mxCell>
        <mxCell id="pOeTAW9wxpoR-jRWrxwD-30" value="" style="endArrow=none;html=1;rounded=0;entryX=0;entryY=0.5;entryDx=0;entryDy=0;" edge="1" parent="1" target="pOeTAW9wxpoR-jRWrxwD-14">
          <mxGeometry width="50" height="50" relative="1" as="geometry">
            <mxPoint x="130" y="170" as="sourcePoint" />
            <mxPoint x="520" y="310" as="targetPoint" />
          </mxGeometry>
        </mxCell>
        <mxCell id="pOeTAW9wxpoR-jRWrxwD-31" value="" style="endArrow=open;html=1;rounded=0;dashed=1;dashPattern=8 8;endFill=0;entryX=1;entryY=0.5;entryDx=0;entryDy=0;exitX=0;exitY=0.5;exitDx=0;exitDy=0;" edge="1" parent="1" source="pOeTAW9wxpoR-jRWrxwD-18" target="pOeTAW9wxpoR-jRWrxwD-19">
          <mxGeometry width="50" height="50" relative="1" as="geometry">
            <mxPoint x="780" y="470" as="sourcePoint" />
            <mxPoint x="830" y="420" as="targetPoint" />
          </mxGeometry>
        </mxCell>
        <mxCell id="pOeTAW9wxpoR-jRWrxwD-32" value="" style="endArrow=open;html=1;rounded=0;dashed=1;dashPattern=8 8;endFill=0;entryX=0;entryY=0;entryDx=0;entryDy=0;exitX=1;exitY=0.5;exitDx=0;exitDy=0;" edge="1" parent="1" source="pOeTAW9wxpoR-jRWrxwD-15" target="pOeTAW9wxpoR-jRWrxwD-18">
          <mxGeometry width="50" height="50" relative="1" as="geometry">
            <mxPoint x="790" y="480" as="sourcePoint" />
            <mxPoint x="840" y="430" as="targetPoint" />
          </mxGeometry>
        </mxCell>
        <mxCell id="pOeTAW9wxpoR-jRWrxwD-35" value="&amp;lt;&amp;lt;include&amp;gt;&amp;gt;" style="edgeLabel;html=1;align=center;verticalAlign=middle;resizable=0;points=[];" vertex="1" connectable="0" parent="pOeTAW9wxpoR-jRWrxwD-32">
          <mxGeometry x="-0.0625" y="-3" relative="1" as="geometry">
            <mxPoint y="-18" as="offset" />
          </mxGeometry>
        </mxCell>
        <mxCell id="pOeTAW9wxpoR-jRWrxwD-33" value="" style="endArrow=open;html=1;rounded=0;dashed=1;dashPattern=8 8;endFill=0;entryX=0.5;entryY=0;entryDx=0;entryDy=0;exitX=0.5;exitY=1;exitDx=0;exitDy=0;" edge="1" parent="1" source="pOeTAW9wxpoR-jRWrxwD-17" target="pOeTAW9wxpoR-jRWrxwD-18">
          <mxGeometry width="50" height="50" relative="1" as="geometry">
            <mxPoint x="620" y="240" as="sourcePoint" />
            <mxPoint x="670" y="190" as="targetPoint" />
          </mxGeometry>
        </mxCell>
        <mxCell id="pOeTAW9wxpoR-jRWrxwD-36" value="&amp;lt;&amp;lt;include&amp;gt;&amp;gt;" style="edgeLabel;html=1;align=center;verticalAlign=middle;resizable=0;points=[];" vertex="1" connectable="0" parent="1">
          <mxGeometry x="761.24819267393" y="200.00134988381402" as="geometry" />
        </mxCell>
        <mxCell id="pOeTAW9wxpoR-jRWrxwD-37" value="&amp;lt;&amp;lt;extend&amp;gt;&amp;gt;" style="edgeLabel;html=1;align=center;verticalAlign=middle;resizable=0;points=[];" vertex="1" connectable="0" parent="1">
          <mxGeometry x="659.99819267393" y="320.001349883814" as="geometry" />
        </mxCell>
        <mxCell id="pOeTAW9wxpoR-jRWrxwD-38" value="" style="endArrow=none;html=1;rounded=0;entryX=0;entryY=0.5;entryDx=0;entryDy=0;" edge="1" parent="1" target="pOeTAW9wxpoR-jRWrxwD-19">
          <mxGeometry width="50" height="50" relative="1" as="geometry">
            <mxPoint x="140" y="310" as="sourcePoint" />
            <mxPoint x="520" y="310" as="targetPoint" />
          </mxGeometry>
        </mxCell>
      </root>
    </mxGraphModel>
  </diagram>
</mxfile>
